<svg id="Layer_1" data-name="Layer 1" xmlns="http://www.w3.org/2000/svg" viewBox="0 0 201.07 179.84"><defs><style>.cls-1{fill:#020202;}.cls-2{fill:#2c9646;}</style></defs><path class="cls-1" d="M196.57,64l-4.83,4.8h0a21.55,21.55,0,0,0-4-1.5h0l-.56-6.78-4.72-.44-1.79,6.57h0a21.85,21.85,0,0,0-4.25.73h0l-3.87-5.6-4.32,2,1.74,6.58a22.29,22.29,0,0,0-3.3,2.75h0l-6.15-2.91-2.74,3.88,4.79,4.83h0a21.43,21.43,0,0,0-1.49,4l-6.79.56-.43,4.73L160.39,90h0a21.83,21.83,0,0,0,.72,4.25h0l-5.6,3.88,2,4.3,6.58-1.74h0a20.31,20.31,0,0,0,2.75,3.31h0l-2.91,6.16,3.87,2.73,4.83-4.79h0a22.18,22.18,0,0,0,4,1.5l.57,6.78,4.72.43,1.78-6.56a22.52,22.52,0,0,0,4.24-.73l3.88,5.6,4.3-2-1.73-6.58a22.37,22.37,0,0,0,3.31-2.75l6.15,2.91,2.74-3.87L201.84,98a21.23,21.23,0,0,0,1.48-4l6.78-.56.45-4.72L204,86.9a21.86,21.86,0,0,0-.72-4.24l5.59-3.87-2-4.3-6.58,1.73a21.83,21.83,0,0,0-2.76-3.31h0l2.91-6.15L196.56,64Zm-4.71,10.8a16.71,16.71,0,1,1-23.31,4,16.71,16.71,0,0,1,23.31-4Z" transform="translate(-49.47 -60.08)"/><path class="cls-1" d="M174,140.2l-1.7,6.59h0a22,22,0,0,0-4.24.79h0L164.15,142l-4.28,2.05,1.83,6.55h0a21.5,21.5,0,0,0-3.27,2.83h0l-6.22-2.83-2.63,3.87,4.87,4.77a21,21,0,0,0-1.43,4.05h0l-6.78.66-.37,4.73,6.59,1.69h0a22.38,22.38,0,0,0,.79,4.23l-5.54,4,2,4.27,6.55-1.83h0a21.5,21.5,0,0,0,2.83,3.27h0l-2.83,6.22,3.92,2.68,4.76-4.87h0a21.51,21.51,0,0,0,4.06,1.43h0l.65,6.78,4.73.36,1.69-6.59h0a21.6,21.6,0,0,0,4.23-.78l4,5.54,4.28-2.05-1.84-6.55a22,22,0,0,0,3.27-2.83l6.21,2.83,2.68-3.91-4.86-4.77a21.66,21.66,0,0,0,1.43-4.05l6.78-.66.36-4.73L196,166.67a22.53,22.53,0,0,0-.79-4.23l5.54-3.95-2.05-4.28L192.18,156a22.59,22.59,0,0,0-2.83-3.27l2.83-6.21-3.92-2.68-4.76,4.86a22.2,22.2,0,0,0-4.06-1.42h0l-.66-6.78-4.73-.37Zm1.47,11.69a16.7,16.7,0,1,1-17.94,15.37,16.7,16.7,0,0,1,17.94-15.37Z" transform="translate(-49.47 -60.08)"/><path class="cls-2" d="M69.33,81.57l2.15,8.56h0A30.34,30.34,0,0,0,67,93.76h0L58.8,90,55,95.13l6.28,6.21h0a29.09,29.09,0,0,0-2.1,5.3h0l-9.09.82-.66,6.17,8.74,2.26a27.24,27.24,0,0,0,.87,5.52h0l-7.59,5.12,2.54,5.6,8.86-2.35h0a26.65,26.65,0,0,0,3.58,4.28l-4,8.07,5.08,3.52,6.6-6.31h0a29.07,29.07,0,0,0,5.37,1.91h0l.57,8.84,6.3.51L88.9,142h0A30.57,30.57,0,0,0,94.58,141h0l5,7.26,5.8-2.63L103.28,137h0a30.34,30.34,0,0,0,4.52-3.63l8.16,3.72,3.76-5.08-6.29-6.22a28.72,28.72,0,0,0,2.1-5.29l9.09-.82.7-6.16-8.74-2.26a26.54,26.54,0,0,0-.86-5.52l7.6-5.12L120.78,95l-8.86,2.35a27.24,27.24,0,0,0-3.59-4.28l4-8.07-5.08-3.52-6.63,6.33a30,30,0,0,0-5.36-1.9l-.57-8.83-6.29-.53-2.57,8.6a29.77,29.77,0,0,0-5.69,1h0l-5-7.26-5.81,2.64Zm9.1,12.29c11.3-5.14,24.51-.48,29.45,10.4s-.21,23.88-11.51,29-24.51.49-29.46-10.4.23-23.88,11.54-29Z" transform="translate(-49.47 -60.08)"/><path class="cls-1" d="M175.92,126.45l-6.55-1.84h0a21.88,21.88,0,0,0-.69-4.26h0l5.65-3.81-1.94-4.33-6.6,1.69h0a22.37,22.37,0,0,0-2.73-3.34h0l3-6.12-3.84-2.77-4.87,4.75a21.53,21.53,0,0,0-4-1.52h0l-.49-6.78-4.72-.48-1.85,6.54h0a21.78,21.78,0,0,0-4.25.69l-3.82-5.65-4.33,1.94,1.7,6.6h0a21.31,21.31,0,0,0-3.35,2.72h0l-6.12-3-2.78,3.85,4.76,4.87h0a21.57,21.57,0,0,0-1.53,4h0l-6.78.49-.48,4.72,6.55,1.85h0a21.78,21.78,0,0,0,.69,4.25l-5.65,3.82,2,4.33,6.59-1.69a22.22,22.22,0,0,0,2.72,3.33l-3,6.12,3.85,2.78,4.87-4.75a22.29,22.29,0,0,0,4,1.53l.48,6.78,4.73.48,1.82-6.57a21.81,21.81,0,0,0,4.24-.69l3.82,5.65,4.32-1.94-1.69-6.6a21.63,21.63,0,0,0,3.33-2.72l6.12,3,2.78-3.84-4.75-4.88a21.53,21.53,0,0,0,1.52-4h0l6.78-.49.48-4.72Zm-11.75,1.2a16.71,16.71,0,1,1-14.94-18.31h0A16.71,16.71,0,0,1,164.17,127.65Z" transform="translate(-49.47 -60.08)"/><path class="cls-1" d="M222,124.26l-1.7,6.59h0a21.77,21.77,0,0,0-4.23.8h0l-4-5.54-4.27,2,1.83,6.56h0a22.6,22.6,0,0,0-3.28,2.82h0l-6.21-2.82-2.66,3.89,4.87,4.77a21.66,21.66,0,0,0-1.43,4h0l-6.78.66-.36,4.73,6.59,1.69h0a21,21,0,0,0,.79,4.23l-5.55,4L197.7,167l6.59-1.84h0a22.07,22.07,0,0,0,2.83,3.28h0l-2.83,6.21,3.91,2.69,4.76-4.87h0a23,23,0,0,0,4.06,1.43h0l.66,6.78,4.73.36,1.69-6.59h0a21,21,0,0,0,4.24-.79l3.95,5.55,4.28-2-1.83-6.55a22.51,22.51,0,0,0,3.26-2.83l6.22,2.83,2.67-3.91-4.93-4.8a21.51,21.51,0,0,0,1.43-4.06l6.78-.65.36-4.73-6.59-1.7a21.52,21.52,0,0,0-.79-4.22l5.54-4-2.05-4.28-6.56,1.83a21.23,21.23,0,0,0-2.8-3.26l2.83-6.22L236.19,128l-4.78,4.87a21.48,21.48,0,0,0-4.06-1.42h0l-.66-6.78ZM223.46,136a16.71,16.71,0,1,1-17.94,15.38A16.71,16.71,0,0,1,223.46,136Z" transform="translate(-49.47 -60.08)"/><path class="cls-2" d="M87.55,204.49h3.26l10.08,27.28H96.76l-7.56-22-7.57,22H77.51Zm-5.42,17.66H96.48v3.64H82.13Z" transform="translate(-49.47 -60.08)"/><path class="cls-2" d="M104.62,212.3h3.83v19.47h-3.83ZM116.44,220a4.44,4.44,0,0,0-1.07-3.19,4.62,4.62,0,0,0-5.9-.13,3.67,3.67,0,0,0-1,2.79l-.39-3.75a6.87,6.87,0,0,1,2.35-2.72,5.74,5.74,0,0,1,3.22-1,6,6,0,0,1,4.9,2.08,8.85,8.85,0,0,1,1.74,5.86v11.82h-3.83Z" transform="translate(-49.47 -60.08)"/><path class="cls-2" d="M126.93,230.56a6.6,6.6,0,0,1-.15-8.85,7.33,7.33,0,0,1,4.93-1.45h5.54l.26,3.08h-5.78a3.29,3.29,0,0,0-2.26.67,2.6,2.6,0,0,0-.74,2,2.56,2.56,0,0,0,1,2.2,5.1,5.1,0,0,0,3,.71,8.46,8.46,0,0,0,3.27-.47,1.53,1.53,0,0,0,1.08-1.46l.4,2.74a4.69,4.69,0,0,1-1.25,1.3,5.52,5.52,0,0,1-1.7.75,8.52,8.52,0,0,1-2.19.26A8.29,8.29,0,0,1,126.93,230.56Zm10.17-11.13a4.12,4.12,0,0,0-1-3,3.85,3.85,0,0,0-2.9-1,7.51,7.51,0,0,0-2.26.35,6.71,6.71,0,0,0-2,1l-2.8-1.92a7.37,7.37,0,0,1,2.92-2.07,10.46,10.46,0,0,1,4-.74,9.28,9.28,0,0,1,4.15.85,6,6,0,0,1,2.63,2.48,8,8,0,0,1,.9,3.91v12.51h-3.64Z" transform="translate(-49.47 -60.08)"/><path class="cls-2" d="M150.36,226.74a1.68,1.68,0,0,0,.31,1.11,1.09,1.09,0,0,0,.87.38h1.81v3.64h-2.27a4.26,4.26,0,0,1-3.39-1.35,5.63,5.63,0,0,1-1.19-3.81V204.49h3.83Z" transform="translate(-49.47 -60.08)"/><path class="cls-2" d="M155.59,212.3h3.91l6,16.95-2.12,4.14Zm17.25,0-8.3,24a5.69,5.69,0,0,1-1.18,2.12,4.24,4.24,0,0,1-1.8,1.13,9,9,0,0,1-2.63.34h-.77v-3.7h.77a3,3,0,0,0,1.7-.43,3.44,3.44,0,0,0,1.09-1.49l7.21-22Z" transform="translate(-49.47 -60.08)"/><path class="cls-2" d="M179.86,231.72a12.16,12.16,0,0,1-2.82-1,11.41,11.41,0,0,1-2.43-1.7l2.26-2.83A12.89,12.89,0,0,0,180,228a8.57,8.57,0,0,0,3.08.6,6.6,6.6,0,0,0,3.39-.7,2.33,2.33,0,0,0,1.13-2.12,1.68,1.68,0,0,0-.62-1.4,3.44,3.44,0,0,0-1.53-.63c-.62-.11-1.49-.21-2.6-.29H182a15.22,15.22,0,0,1-3.21-.57,4.33,4.33,0,0,1-2.18-1.51,5,5,0,0,1-.88-3.17,6.43,6.43,0,0,1,.85-3.43,5.18,5.18,0,0,1,2.51-2.06,11.25,11.25,0,0,1,4.18-.68,14,14,0,0,1,2.9.28,13.49,13.49,0,0,1,2.64.83,12.92,12.92,0,0,1,2.42,1.4l-2.3,2.8a12.9,12.9,0,0,0-2.89-1.41,8.93,8.93,0,0,0-2.76-.47,5.18,5.18,0,0,0-2.93.67,2.26,2.26,0,0,0-1,2,1.34,1.34,0,0,0,.56,1.18,3.22,3.22,0,0,0,1.4.52c.56.09,1.36.17,2.4.23h.71a16.4,16.4,0,0,1,3.48.56,4.7,4.7,0,0,1,2.41,1.64,5.52,5.52,0,0,1,1,3.52,6.32,6.32,0,0,1-.9,3.48,5.42,5.42,0,0,1-2.71,2.08,12.84,12.84,0,0,1-4.55.69A14.8,14.8,0,0,1,179.86,231.72Z" transform="translate(-49.47 -60.08)"/><path class="cls-2" d="M196.14,204.49H200v3.83h-3.83Zm0,7.81H200v19.47h-3.83Z" transform="translate(-49.47 -60.08)"/><path class="cls-2" d="M209.43,231.72a12.16,12.16,0,0,1-2.82-1,11.35,11.35,0,0,1-2.42-1.7l2.26-2.83a12.7,12.7,0,0,0,3.13,1.81,8.53,8.53,0,0,0,3.08.6,6.64,6.64,0,0,0,3.39-.7,2.35,2.35,0,0,0,1.13-2.12,1.63,1.63,0,0,0-.62-1.4,3.43,3.43,0,0,0-1.54-.63,25.62,25.62,0,0,0-2.59-.29h-.31l-.33,0h-.3a15.32,15.32,0,0,1-3.21-.56,4.46,4.46,0,0,1-2.18-1.52,5,5,0,0,1-.87-3.17,6.34,6.34,0,0,1,.85-3.43,5.06,5.06,0,0,1,2.51-2.05,11.06,11.06,0,0,1,4.18-.69,14.85,14.85,0,0,1,2.9.28,12.89,12.89,0,0,1,5.06,2.24l-2.31,2.79a13,13,0,0,0-2.88-1.41,9,9,0,0,0-2.77-.47,5.26,5.26,0,0,0-2.93.67,2.26,2.26,0,0,0-1,2,1.34,1.34,0,0,0,.56,1.18,3.37,3.37,0,0,0,1.4.53c.57.09,1.37.16,2.4.22H214a17.2,17.2,0,0,1,3.48.57,4.59,4.59,0,0,1,2.4,1.63,5.48,5.48,0,0,1,1,3.53,6.19,6.19,0,0,1-.9,3.48,5.38,5.38,0,0,1-2.71,2.07,12.77,12.77,0,0,1-4.55.69A14.5,14.5,0,0,1,209.43,231.72Z" transform="translate(-49.47 -60.08)"/></svg>